<mxfile host="app.diagrams.net" modified="2024-06-19T22:19:46.729Z" agent="Mozilla/5.0 (Windows NT 10.0; Win64; x64) AppleWebKit/537.36 (KHTML, like Gecko) Chrome/126.0.0.0 Safari/537.36" etag="PcpbnSRwWLve4K5zXnXd" version="24.5.5" type="device">
  <diagram name="Page-1" id="NvJs8Dg5NmaoeDKjxL45">
    <mxGraphModel dx="1199" dy="680" grid="1" gridSize="10" guides="1" tooltips="1" connect="1" arrows="1" fold="1" page="1" pageScale="1" pageWidth="850" pageHeight="1100" background="none" math="0" shadow="0">
      <root>
        <mxCell id="0" />
        <mxCell id="1" parent="0" />
        <mxCell id="rRVQ5Wc-CysEHi-VJfVr-72" value="" style="rounded=1;whiteSpace=wrap;html=1;rotation=90;fillColor=#f5f5f5;strokeColor=#666666;fontColor=#333333;" vertex="1" parent="1">
          <mxGeometry x="92.35" y="134.22" width="583.75" height="337.81" as="geometry" />
        </mxCell>
        <mxCell id="rRVQ5Wc-CysEHi-VJfVr-2" value="&lt;div style=&quot;font-size: 12px;&quot;&gt;&lt;b&gt;DC&amp;nbsp;&lt;/b&gt;&lt;/div&gt;&lt;div style=&quot;font-size: 12px;&quot;&gt;&lt;b&gt;VIBRATION&amp;nbsp;&lt;/b&gt;&lt;/div&gt;&lt;div style=&quot;font-size: 12px;&quot;&gt;&lt;b&gt;MOTOR&lt;/b&gt;&lt;/div&gt;" style="dashed=0;outlineConnect=0;align=center;html=1;shape=mxgraph.pid.engines.electric_motor_(dc);fontSize=45;fillColor=#f5f5f5;fontColor=#333333;strokeColor=#666666;" vertex="1" parent="1">
          <mxGeometry x="340" y="260" width="80" height="80" as="geometry" />
        </mxCell>
        <mxCell id="rRVQ5Wc-CysEHi-VJfVr-61" style="edgeStyle=orthogonalEdgeStyle;rounded=0;orthogonalLoop=1;jettySize=auto;html=1;entryX=0.5;entryY=1;entryDx=0;entryDy=0;entryPerimeter=0;" edge="1" parent="1" source="rRVQ5Wc-CysEHi-VJfVr-62" target="rRVQ5Wc-CysEHi-VJfVr-2">
          <mxGeometry relative="1" as="geometry" />
        </mxCell>
        <mxCell id="rRVQ5Wc-CysEHi-VJfVr-62" value="&lt;b&gt;dxx Motor Driver&lt;/b&gt;" style="rounded=0;whiteSpace=wrap;html=1;" vertex="1" parent="1">
          <mxGeometry x="320" y="370" width="120" height="60" as="geometry" />
        </mxCell>
        <mxCell id="rRVQ5Wc-CysEHi-VJfVr-67" style="edgeStyle=orthogonalEdgeStyle;rounded=0;orthogonalLoop=1;jettySize=auto;html=1;exitX=0.5;exitY=0;exitDx=0;exitDy=0;entryX=0.5;entryY=1;entryDx=0;entryDy=0;" edge="1" parent="1" source="rRVQ5Wc-CysEHi-VJfVr-66" target="rRVQ5Wc-CysEHi-VJfVr-62">
          <mxGeometry relative="1" as="geometry" />
        </mxCell>
        <mxCell id="rRVQ5Wc-CysEHi-VJfVr-73" style="edgeStyle=orthogonalEdgeStyle;rounded=0;orthogonalLoop=1;jettySize=auto;html=1;entryX=1;entryY=0.5;entryDx=0;entryDy=0;" edge="1" parent="1" source="rRVQ5Wc-CysEHi-VJfVr-66" target="rRVQ5Wc-CysEHi-VJfVr-64">
          <mxGeometry relative="1" as="geometry">
            <Array as="points">
              <mxPoint x="380" y="450" />
              <mxPoint x="500" y="450" />
              <mxPoint x="500" y="135" />
            </Array>
          </mxGeometry>
        </mxCell>
        <mxCell id="rRVQ5Wc-CysEHi-VJfVr-66" value="&lt;b&gt;SAM D11&lt;/b&gt;" style="whiteSpace=wrap;html=1;aspect=fixed;fillColor=#bac8d3;strokeColor=#23445d;" vertex="1" parent="1">
          <mxGeometry x="340" y="465" width="80" height="80" as="geometry" />
        </mxCell>
        <mxCell id="rRVQ5Wc-CysEHi-VJfVr-74" style="edgeStyle=orthogonalEdgeStyle;rounded=0;orthogonalLoop=1;jettySize=auto;html=1;entryX=0.5;entryY=0;entryDx=0;entryDy=0;" edge="1" parent="1" source="rRVQ5Wc-CysEHi-VJfVr-68" target="rRVQ5Wc-CysEHi-VJfVr-72">
          <mxGeometry relative="1" as="geometry" />
        </mxCell>
        <mxCell id="rRVQ5Wc-CysEHi-VJfVr-68" value="&lt;span style=&quot;color: rgb(29, 28, 29); font-family: Slack-Lato, Slack-Fractions, appleLogo, sans-serif; font-size: 15px; font-variant-ligatures: common-ligatures; text-align: left; text-wrap: wrap; background-color: rgb(255, 255, 255);&quot;&gt;&lt;b&gt;Lithium polymer&lt;/b&gt;&lt;/span&gt;" style="pointerEvents=1;verticalLabelPosition=bottom;shadow=0;dashed=0;align=center;html=1;verticalAlign=top;shape=mxgraph.electrical.miscellaneous.batteryStack;" vertex="1" parent="1">
          <mxGeometry x="671.88" y="273.13" width="100" height="60" as="geometry" />
        </mxCell>
        <mxCell id="rRVQ5Wc-CysEHi-VJfVr-75" value="&lt;font face=&quot;Slack-Lato, Slack-Fractions, appleLogo, sans-serif&quot; color=&quot;#1d1c1d&quot;&gt;&lt;span style=&quot;font-size: 15px; font-variant-ligatures: common-ligatures;&quot;&gt;&lt;b&gt;USB C PORT&lt;/b&gt;&lt;/span&gt;&lt;/font&gt;" style="rounded=0;whiteSpace=wrap;html=1;fillColor=#f5f5f5;fontColor=#333333;strokeColor=#666666;" vertex="1" parent="1">
          <mxGeometry x="310" y="570" width="140" height="50" as="geometry" />
        </mxCell>
        <mxCell id="rRVQ5Wc-CysEHi-VJfVr-79" value="" style="group" vertex="1" connectable="0" parent="1">
          <mxGeometry x="300" y="110" width="170" height="130" as="geometry" />
        </mxCell>
        <mxCell id="rRVQ5Wc-CysEHi-VJfVr-64" value="&lt;b&gt;12 LED&lt;/b&gt;&lt;div&gt;&lt;b&gt;LAMP&lt;/b&gt;&lt;/div&gt;&lt;div style=&quot;&quot;&gt;&lt;b&gt;ARRAY&lt;/b&gt;&lt;/div&gt;" style="rounded=0;whiteSpace=wrap;html=1;align=right;" vertex="1" parent="rRVQ5Wc-CysEHi-VJfVr-79">
          <mxGeometry width="170" height="130" as="geometry" />
        </mxCell>
        <mxCell id="rRVQ5Wc-CysEHi-VJfVr-78" value="" style="group" vertex="1" connectable="0" parent="rRVQ5Wc-CysEHi-VJfVr-79">
          <mxGeometry x="20" y="10" width="120" height="110" as="geometry" />
        </mxCell>
        <mxCell id="rRVQ5Wc-CysEHi-VJfVr-41" value="" style="verticalLabelPosition=bottom;shadow=0;dashed=0;align=center;html=1;verticalAlign=top;shape=mxgraph.electrical.opto_electronics.led_2;pointerEvents=1;fillColor=#f8cecc;strokeColor=#b85450;" vertex="1" parent="rRVQ5Wc-CysEHi-VJfVr-78">
          <mxGeometry width="100" height="70" as="geometry" />
        </mxCell>
        <mxCell id="rRVQ5Wc-CysEHi-VJfVr-77" value="" style="group" vertex="1" connectable="0" parent="rRVQ5Wc-CysEHi-VJfVr-78">
          <mxGeometry x="10" y="20" width="110" height="90" as="geometry" />
        </mxCell>
        <mxCell id="rRVQ5Wc-CysEHi-VJfVr-42" value="" style="verticalLabelPosition=bottom;shadow=0;dashed=0;align=center;html=1;verticalAlign=top;shape=mxgraph.electrical.opto_electronics.led_2;pointerEvents=1;fillColor=#d5e8d4;strokeColor=#82b366;" vertex="1" parent="rRVQ5Wc-CysEHi-VJfVr-77">
          <mxGeometry width="100" height="70" as="geometry" />
        </mxCell>
        <mxCell id="rRVQ5Wc-CysEHi-VJfVr-43" value="" style="verticalLabelPosition=bottom;shadow=0;dashed=0;align=center;html=1;verticalAlign=top;shape=mxgraph.electrical.opto_electronics.led_2;pointerEvents=1;fillColor=#dae8fc;strokeColor=#6c8ebf;" vertex="1" parent="rRVQ5Wc-CysEHi-VJfVr-77">
          <mxGeometry x="10" y="20" width="100" height="70" as="geometry" />
        </mxCell>
      </root>
    </mxGraphModel>
  </diagram>
</mxfile>
